<svg width="76" height="49" viewBox="0 0 76 49" fill="none" xmlns="http://www.w3.org/2000/svg">
<g id="money-income/bro">
<g id="Clouds">
<path id="Vector" opacity="0.3" d="M67.1778 11.6532C67.1778 11.6532 66.4932 8.11803 64.2109 8.35948C63.1738 8.46776 62.48 9.01779 61.8784 9.87531C61.1067 10.97 60.83 10.3333 59.7263 10.6928C58.7383 11.0176 58.89 11.8979 58.2813 12.0581C57.6725 12.2183 57.2175 11.4962 56.3802 11.6564C55.5429 11.8167 55.0879 12.7012 55.0879 12.7012H70.2953C70.2557 12.4007 70.1338 12.1189 69.9446 11.8906C69.7555 11.6623 69.5073 11.4973 69.2305 11.416C68.2426 11.0912 67.7855 11.8946 67.1778 11.6532Z" stroke="#222222" stroke-width="0.1875" stroke-miterlimit="10"/>
<path id="Vector_2" opacity="0.3" d="M20.6008 4.18493C20.6008 4.18493 20.1335 1.76827 18.5737 1.93392C17.8645 2.00863 17.391 2.38434 16.9801 2.96685C16.4523 3.71502 16.2627 3.27976 15.5084 3.52554C14.8331 3.74534 14.9355 4.35059 14.5256 4.45886C14.1157 4.56713 13.798 4.07449 13.2272 4.18493C12.6563 4.29537 12.3438 4.89845 12.3438 4.89845H22.7314C22.7038 4.6944 22.6206 4.50324 22.492 4.34828C22.3633 4.19332 22.1948 4.08126 22.0069 4.02577C21.3284 3.80056 21.0169 4.35059 20.6008 4.18493Z" stroke="#222222" stroke-width="0.1875" stroke-miterlimit="10"/>
</g>
<g id="Money">
<g id="Group" opacity="0.3">
<path id="Vector_3" d="M52.1072 1.07128L49.9961 5.75586L57.6724 9.6172L59.7835 4.93262L52.1072 1.07128Z" stroke="#222222" stroke-width="0.1875" stroke-miterlimit="10"/>
<path id="Vector_4" d="M53.0026 2.0732C52.935 2.22289 52.8139 2.3381 52.6659 2.39353C52.518 2.44895 52.3552 2.44005 52.2135 2.36879C52.1911 2.35788 52.1695 2.34521 52.1489 2.33089L50.9365 5.02365C50.96 5.03143 50.9829 5.04083 51.0052 5.0518C51.1469 5.12345 51.256 5.25157 51.3085 5.40807C51.3609 5.56457 51.3525 5.73666 51.285 5.88659C51.2798 5.89812 51.274 5.90933 51.2675 5.92015L56.7524 8.67787C56.7524 8.66596 56.7617 8.65405 56.7668 8.64214C56.8342 8.49226 56.9552 8.37681 57.1032 8.32118C57.2512 8.26555 57.414 8.27428 57.5559 8.34547C57.5781 8.35718 57.5997 8.37019 57.6205 8.38445L58.8328 5.69494C58.8094 5.68679 58.7864 5.67703 58.7642 5.66571C58.6237 5.59352 58.516 5.46556 58.4646 5.30977C58.4131 5.15398 58.4221 4.983 58.4895 4.83417C58.4998 4.81052 58.5118 4.78772 58.5254 4.76596L53.0292 2.00391C53.0217 2.02758 53.0128 2.05072 53.0026 2.0732ZM55.7696 5.78048C55.6873 5.9642 55.5552 6.11797 55.39 6.22227C55.2249 6.32658 55.0342 6.37673 54.842 6.36637C54.6499 6.35601 54.4649 6.28561 54.3107 6.16409C54.1565 6.04257 54.0399 5.8754 53.9757 5.68378C53.9115 5.49215 53.9026 5.2847 53.9501 5.08773C53.9976 4.89075 54.0994 4.71312 54.2426 4.57736C54.3858 4.44159 54.5639 4.3538 54.7544 4.32511C54.9449 4.29643 55.1391 4.32814 55.3125 4.41624C55.4276 4.47431 55.5306 4.55574 55.6158 4.6559C55.7011 4.75605 55.7668 4.87296 55.8092 4.99995C55.8516 5.12694 55.87 5.26152 55.8632 5.396C55.8564 5.53048 55.8246 5.66223 55.7696 5.78373V5.78048Z" stroke="#222222" stroke-width="0.1875" stroke-miterlimit="10"/>
</g>
<g id="Group_2" opacity="0.3">
<path id="Vector_5" d="M6.40606 3.72753L4.29492 8.41211L11.9712 12.2735L14.0824 7.58887L6.40606 3.72753Z" stroke="#222222" stroke-width="0.1875" stroke-miterlimit="10"/>
<path id="Vector_6" d="M7.29897 4.7327C7.26559 4.80692 7.21869 4.87345 7.16095 4.92849C7.1032 4.98353 7.03575 5.02599 6.96245 5.05345C6.88915 5.0809 6.81144 5.09281 6.73377 5.0885C6.65611 5.08418 6.58002 5.06372 6.50985 5.02829C6.48746 5.01737 6.46588 5.00471 6.44528 4.99039L5.23291 7.6799C5.25598 7.68739 5.27857 7.69643 5.30055 7.70697C5.3708 7.74223 5.43377 7.79178 5.48587 7.85278C5.53796 7.91379 5.57815 7.98506 5.60414 8.0625C5.63013 8.13994 5.6414 8.22204 5.63732 8.30409C5.63323 8.38614 5.61386 8.46654 5.58033 8.54067C5.5752 8.55258 5.56905 8.56341 5.56291 8.57532L11.0478 11.3341L11.0621 11.2984C11.0955 11.2242 11.1424 11.1576 11.2002 11.1026C11.2579 11.0476 11.3254 11.0051 11.3987 10.9776C11.472 10.9502 11.5497 10.9383 11.6273 10.9426C11.705 10.9469 11.7811 10.9674 11.8513 11.0028C11.8736 11.0137 11.8952 11.0264 11.9158 11.0407L13.1292 8.35661C13.1056 8.34795 13.0831 8.33928 13.0606 8.32846C12.99 8.293 12.9267 8.24314 12.8745 8.18175C12.8222 8.12036 12.782 8.04865 12.756 7.97075C12.7301 7.89285 12.7191 7.8103 12.7235 7.72787C12.7279 7.64543 12.7477 7.56473 12.7818 7.49042C12.7921 7.46712 12.8041 7.44468 12.8177 7.42329L7.32561 4.66016C7.3187 4.68509 7.30978 4.70936 7.29897 4.7327ZM10.066 8.43998C9.98355 8.623 9.85159 8.77609 9.68682 8.87992C9.52204 8.98375 9.33184 9.03364 9.14023 9.02331C8.94862 9.01298 8.76421 8.94288 8.6103 8.82187C8.45639 8.70086 8.33987 8.53437 8.27548 8.34343C8.21109 8.15249 8.20171 7.94568 8.24852 7.74911C8.29533 7.55254 8.39624 7.37504 8.5385 7.23903C8.68076 7.10302 8.85797 7.01462 9.04777 6.98497C9.23756 6.95533 9.43141 6.98578 9.60483 7.07249C9.72011 7.13028 9.82348 7.21149 9.90904 7.31149C9.99461 7.4115 10.0607 7.52833 10.1035 7.65531C10.1463 7.7823 10.1651 7.91695 10.1586 8.05159C10.1522 8.18622 10.1207 8.3182 10.066 8.43998Z" stroke="#222222" stroke-width="0.1875" stroke-miterlimit="10"/>
</g>
<g id="Group_3" opacity="0.3">
<path id="Vector_7" d="M61.2361 18.1846L59.125 22.8691L66.8013 26.7305L68.9125 22.0459L61.2361 18.1846Z" stroke="#222222" stroke-width="0.1875" stroke-miterlimit="10"/>
<path id="Vector_8" d="M62.132 19.1926C62.0986 19.2669 62.0517 19.3336 61.9939 19.3887C61.9361 19.4439 61.8685 19.4865 61.7951 19.514C61.7217 19.5416 61.6439 19.5536 61.5661 19.5493C61.4884 19.5451 61.4121 19.5246 61.3418 19.4892C61.3193 19.4773 61.2988 19.4643 61.2783 19.4513L60.0659 22.1408C60.0893 22.1488 60.1122 22.1582 60.1346 22.169C60.2763 22.2406 60.3854 22.3688 60.4379 22.5253C60.4903 22.6818 60.4819 22.8538 60.4144 23.0038L60.3969 23.0373L65.8818 25.7972C65.8855 25.7849 65.8903 25.7729 65.8962 25.7615C65.9292 25.6865 65.9759 25.6192 66.0337 25.5634C66.0915 25.5076 66.1593 25.4646 66.233 25.4367C66.3066 25.4088 66.3848 25.3966 66.463 25.4009C66.5412 25.4051 66.6178 25.4258 66.6884 25.4616C66.7109 25.4735 66.7324 25.4865 66.7529 25.4995L67.9643 22.81C67.9412 22.802 67.9186 22.7926 67.8966 22.7818C67.7547 22.7104 67.6454 22.5823 67.5928 22.4258C67.5401 22.2693 67.5484 22.0971 67.6158 21.947C67.6271 21.9243 67.6394 21.9016 67.6527 21.8799L62.1586 19.1211C62.1513 19.1455 62.1423 19.1694 62.132 19.1926ZM64.899 22.9009C64.8164 23.0843 64.6842 23.2376 64.5192 23.3416C64.3541 23.4455 64.1635 23.4954 63.9716 23.485C63.7797 23.4745 63.595 23.4041 63.4409 23.2827C63.2869 23.1613 63.1703 22.9944 63.1061 22.803C63.0418 22.6117 63.0327 22.4045 63.08 22.2077C63.1272 22.0108 63.2286 21.8332 63.3714 21.6973C63.5142 21.5614 63.6919 21.4733 63.8821 21.4441C64.0723 21.415 64.2664 21.446 64.4399 21.5334C64.6722 21.6507 64.8509 21.8606 64.9368 22.117C65.0226 22.3734 65.0087 22.6554 64.898 22.9009H64.899Z" stroke="#222222" stroke-width="0.1875" stroke-miterlimit="10"/>
</g>
<g id="Group_4" opacity="0.3">
<path id="Vector_9" d="M37.0848 10.4711L39.9673 14.6719L46.8508 9.39979L43.9683 5.19905L37.0848 10.4711Z" stroke="#222222" stroke-width="0.1875" stroke-miterlimit="10"/>
<path id="Vector_10" d="M38.3471 10.1254C38.4392 10.2598 38.477 10.4274 38.4522 10.5912C38.4274 10.7551 38.342 10.9018 38.2149 10.9992C38.1951 11.0147 38.1742 11.0284 38.1523 11.0403L39.8074 13.4527C39.8253 13.4349 39.8441 13.4183 39.8638 13.4029C39.9912 13.3055 40.1499 13.2655 40.3052 13.2917C40.4604 13.3179 40.5995 13.4081 40.6919 13.5425C40.699 13.5529 40.7055 13.5638 40.7113 13.575L45.6305 9.8071L45.608 9.77786C45.5157 9.64342 45.4777 9.47579 45.5023 9.31177C45.5269 9.14775 45.6121 9.00074 45.7392 8.90301C45.7597 8.88786 45.7812 8.87486 45.8017 8.86187L44.1414 6.45062C44.1236 6.46833 44.1047 6.48496 44.0851 6.50043C43.9578 6.59746 43.7993 6.63724 43.6443 6.61106C43.4892 6.58488 43.3504 6.49488 43.258 6.36076C43.2438 6.34034 43.2308 6.31901 43.2191 6.29688L38.2999 10.068C38.3169 10.086 38.3326 10.1051 38.3471 10.1254ZM42.7538 9.33394C42.8664 9.49815 42.9304 9.69394 42.9377 9.89656C42.945 10.0992 42.8952 10.2995 42.7947 10.4723C42.6942 10.645 42.5475 10.7824 42.3731 10.8671C42.1988 10.9518 42.0045 10.9799 41.815 10.948C41.6255 10.9161 41.4492 10.8255 41.3084 10.6877C41.1676 10.5499 41.0686 10.3711 41.024 10.1739C40.9793 9.97671 40.991 9.76995 41.0576 9.57977C41.1242 9.3896 41.2426 9.22455 41.398 9.10548C41.6062 8.94613 41.8658 8.88068 42.1197 8.92352C42.3735 8.96637 42.6009 9.114 42.7518 9.33394H42.7538Z" stroke="#222222" stroke-width="0.1875" stroke-miterlimit="10"/>
</g>
</g>
<g id="Plants">
<g id="Group_5" opacity="0.15">
<path id="Vector_11" d="M4.32274 18.5561C4.97248 18.5788 6.31501 17.9768 6.31604 17.9768C6.31706 17.9768 5.67142 17.1626 5.62428 17.1171C5.08009 16.5855 3.73142 15.8958 3.00891 16.3267C2.48727 16.6375 2.40016 17.3488 2.73118 17.8425C3.0622 18.3363 3.76933 18.5377 4.32274 18.5561Z" fill="#222222"/>
<path id="Vector_12" d="M6.35212 22.5037C6.95985 22.351 8.02874 21.4718 8.1138 21.4015C8.58692 22.0484 9.10049 22.6611 9.65105 23.2356C9.97079 23.5734 10.3028 23.9015 10.639 24.2263C10.4648 24.1029 10.308 23.9924 10.2844 23.9794C9.62543 23.6189 8.15275 23.3298 7.56347 23.948C7.13817 24.3931 7.23245 25.1022 7.67518 25.4888C8.1179 25.8753 8.84963 25.8677 9.38869 25.7313C9.92775 25.5949 10.8603 24.8651 11.1032 24.667L11.4927 25.0384C12.1209 25.6274 12.7491 26.212 13.3486 26.8054C13.5597 27.0143 13.7586 27.2287 13.9635 27.442C13.8078 27.3338 13.6766 27.2406 13.6561 27.2255C12.9981 26.8649 11.5255 26.5758 10.9352 27.1941C10.5099 27.638 10.6041 28.3483 11.0469 28.7337C11.4896 29.1192 12.2213 29.1138 12.7604 28.9773C13.282 28.8463 14.1418 28.1805 14.4308 27.9487C14.6358 28.174 14.8326 28.3992 15.0171 28.6265C15.14 28.7846 15.2692 28.9286 15.3839 29.0954L15.7314 29.5772C15.9363 29.8923 16.1608 30.216 16.3586 30.5289C16.4979 30.7454 16.626 30.9533 16.7572 31.1645C16.5522 30.9479 16.1331 30.5495 16.0941 30.5148C15.4956 30.0525 14.0814 29.5317 13.4091 30.0482C12.9254 30.4195 12.9172 31.1363 13.2994 31.5889C13.6817 32.0415 14.4063 32.1508 14.9576 32.1032C15.5653 32.0501 16.7049 31.3853 16.8464 31.302C17.0616 31.6495 17.2666 31.9906 17.4561 32.3165C17.6263 32.6067 17.7841 32.8849 17.9327 33.1502L18.4164 32.9477C18.2473 32.6586 18.0669 32.3566 17.8712 32.0382C17.655 31.6842 17.4172 31.3096 17.1692 30.9273C17.4727 30.6226 17.7591 30.2994 18.027 29.9594C18.5917 30.2452 19.803 30.3481 19.9588 30.36C19.9588 30.7758 19.9496 31.1796 19.9373 31.5618C19.9304 31.8238 19.9212 32.0765 19.9096 32.3197L20.422 32.1032C20.422 31.93 20.4281 31.7546 20.4292 31.5727C20.4343 31.1504 20.4292 30.6989 20.4292 30.2355C20.586 30.2073 21.8701 29.9615 22.3763 29.5978C22.8334 29.2664 23.3274 28.711 23.3551 28.0917C23.3827 27.4723 22.9451 26.9364 22.3487 26.971C21.5196 27.0187 20.7335 28.3656 20.546 29.1235C20.5347 29.1679 20.465 29.6649 20.4271 29.9832C20.4271 29.7937 20.421 29.6107 20.4148 29.4159C20.4046 29.0304 20.3841 28.646 20.3626 28.2324C20.3462 28.0332 20.3298 27.8329 20.3123 27.6293C20.2949 27.4258 20.2621 27.2157 20.2375 27.0068C20.1699 26.5239 20.0807 26.0377 19.9793 25.5505C20.299 25.5397 21.4315 25.4877 21.9326 25.2322C22.4337 24.9766 23.0005 24.5078 23.1163 23.9004C23.2321 23.293 22.8775 22.6921 22.2821 22.6314C21.4561 22.5459 20.4866 23.7521 20.1914 24.4721C20.173 24.5165 20.0162 25.0578 19.9362 25.3567C19.8727 25.0643 19.8112 24.772 19.7384 24.4775C19.5335 23.6297 19.2916 22.7787 19.059 21.9277C18.9872 21.6667 18.9196 21.4069 18.854 21.1459C18.9678 21.1459 20.3154 21.1113 20.877 20.8211C21.3761 20.5678 21.9449 20.0978 22.0607 19.4904C22.1765 18.883 21.8219 18.2821 21.2265 18.2215C20.4005 18.1359 19.43 19.3421 19.1358 20.0621C19.1133 20.1163 18.8889 20.8958 18.8417 21.0961C18.689 20.5223 18.5414 19.9495 18.4185 19.3778C18.2487 18.6071 18.1265 17.8255 18.0526 17.038C18.1049 17.038 19.513 17.011 20.0879 16.7132C20.586 16.4599 21.1548 15.99 21.2706 15.3825C21.3864 14.7751 21.0318 14.1742 20.4363 14.1125C19.6103 14.028 18.6408 15.2342 18.3457 15.9531C18.3231 16.0105 18.0823 16.8475 18.0485 17.0034C18.0485 16.9579 18.0352 16.9103 18.0321 16.8648C17.9781 16.0712 17.9911 15.274 18.071 14.4828C18.11 14.0497 18.1735 13.6318 18.2371 13.229C18.5004 13.2528 19.7015 13.3459 20.2468 13.1424C20.7684 12.9475 21.3833 12.5469 21.5606 11.9568C21.7379 11.3667 21.4489 10.7279 20.8637 10.5979C20.051 10.4182 18.9616 11.5042 18.5947 12.1842C18.5742 12.221 18.4103 12.6172 18.2955 12.9139C18.3283 12.7331 18.359 12.5447 18.398 12.3725C18.5271 11.7229 18.6829 11.1372 18.8253 10.6196C18.9083 10.3251 18.9893 10.0609 19.0672 9.81513C19.3357 9.69603 20.4148 9.20231 20.8022 8.76488C21.1896 8.32746 21.5514 7.68215 21.452 7.07149C21.3525 6.46083 20.8176 6.03639 20.2406 6.2053C19.4412 6.44134 18.9483 7.93767 18.9186 8.71832C18.9186 8.78545 18.9913 9.8487 19.0047 9.8422L19.0211 9.8357C18.9411 10.0707 18.8591 10.324 18.7741 10.6023C18.6204 11.1177 18.4523 11.7023 18.3088 12.3509C18.1475 13.0484 18.0247 13.7551 17.9409 14.4676C17.8438 15.2648 17.8139 16.0696 17.8517 16.8724V16.9016C17.7656 16.6613 17.5043 15.9975 17.4787 15.9488C17.118 15.2645 16.0439 14.1656 15.2241 14.3366C14.6379 14.459 14.3458 15.1065 14.5139 15.6868C14.6819 16.2671 15.2948 16.6872 15.8154 16.8875C16.4026 17.1138 17.7523 17.0045 17.8599 16.9958C17.9178 17.8121 18.027 18.6234 18.1868 19.4244C18.2781 19.891 18.3826 20.3588 18.4943 20.8254C18.4133 20.6208 18.3395 20.4378 18.3262 20.4129C17.9655 19.7286 16.8915 18.6297 16.0716 18.8007C15.4854 18.9242 15.1923 19.5706 15.3604 20.1509C15.5284 20.7312 16.1423 21.1513 16.6629 21.3517C17.1835 21.552 18.3436 21.487 18.648 21.4599C18.6931 21.6386 18.7351 21.8172 18.7802 22.0013C18.9954 22.8588 19.2148 23.712 19.4054 24.5576C19.472 24.8554 19.5283 25.151 19.5847 25.4466C19.513 25.2636 19.4515 25.1109 19.4392 25.0892C19.0785 24.4039 18.0044 23.3049 17.1846 23.476C16.5984 23.5994 16.3053 24.2469 16.4733 24.8272C16.6414 25.4076 17.2553 25.8277 17.7759 26.028C18.2791 26.2218 19.3439 26.1687 19.7067 26.1438C19.7559 26.4481 19.8092 26.7534 19.8419 27.0512C19.8614 27.2547 19.8932 27.4496 19.9024 27.6553C19.9116 27.861 19.928 28.0603 19.9403 28.2595C19.9516 28.6449 19.9649 29.0423 19.967 29.4191C19.967 29.68 19.967 29.9302 19.967 30.177C19.9034 29.8803 19.762 29.3011 19.7507 29.2545C19.5015 28.6169 19.1013 28.0576 18.5886 27.6304C18.5641 27.5582 18.5332 27.4886 18.4963 27.4225C18.2012 26.9017 17.5515 26.6971 17.0708 27.0739C16.4047 27.5969 16.4559 29.1787 16.6916 29.9204C16.706 29.9637 16.9089 30.4206 17.0411 30.7065C16.9386 30.5516 16.8412 30.399 16.7336 30.2398C16.5287 29.9247 16.3063 29.6162 16.0726 29.2838L15.716 28.8095C15.5992 28.6493 15.4577 28.4944 15.3276 28.3342C15.0201 27.9704 14.6912 27.6174 14.3519 27.2699C14.6133 27.075 15.5305 26.3712 15.8154 25.8623C16.1003 25.3534 16.3278 24.6367 16.1075 24.0628C15.8871 23.489 15.2774 23.1966 14.7485 23.4901C14.0148 23.9004 13.8364 25.4715 13.9656 26.2424C13.9738 26.2911 14.1255 26.8335 14.2146 27.1302C14.0096 26.9223 13.8047 26.7144 13.5915 26.512C12.9766 25.9262 12.331 25.3545 11.6925 24.7796C11.4968 24.6042 11.3041 24.4266 11.1104 24.2501C11.2037 24.1819 12.3115 23.3688 12.6302 22.8036C12.9141 22.3012 13.1426 21.5769 12.9223 21.003C12.702 20.4292 12.0922 20.1368 11.5634 20.4302C10.8296 20.8417 10.6503 22.4127 10.7804 23.1836C10.7896 23.2421 11.0089 24.0217 11.0745 24.2176C10.6482 23.8279 10.226 23.4348 9.82527 23.0266C9.28116 22.4826 8.77077 21.9022 8.29725 21.2889C8.34132 21.2564 9.5004 20.414 9.82732 19.8347C10.1112 19.3324 10.3397 18.6091 10.1194 18.0352C9.89906 17.4614 9.28928 17.1691 8.7615 17.4625C8.02669 17.8728 7.84837 19.4439 7.9775 20.2148C7.98775 20.2754 8.22449 21.1145 8.27778 21.264C8.25011 21.2282 8.21834 21.1947 8.19169 21.1557C7.73265 20.5363 7.32659 19.875 6.97829 19.1797C6.78255 18.7932 6.61653 18.412 6.46588 18.0374C6.69647 17.9042 7.74691 17.2795 8.09536 16.7944C8.42945 16.3278 8.7328 15.6348 8.57293 15.0393C8.41305 14.4438 7.83812 14.08 7.28267 14.3128C6.50995 14.6376 6.16868 16.1762 6.21685 16.9579C6.21685 17.0001 6.29166 17.4289 6.34905 17.7407C6.28141 17.5708 6.20967 17.3964 6.14408 17.2319C5.91247 16.6147 5.73415 16.0408 5.58555 15.5201C5.50151 15.2266 5.4308 14.9592 5.36726 14.7091C5.52919 14.4525 6.17073 13.4098 6.26604 12.8208C6.36135 12.2318 6.32548 11.4825 5.92374 11.031C5.52201 10.5795 4.85382 10.5373 4.46131 11.0137C3.91713 11.6764 4.28607 13.2106 4.66628 13.8808C4.69907 13.9382 5.31705 14.7805 5.32524 14.7676L5.33549 14.7524C5.39186 14.9949 5.4554 15.2548 5.52919 15.5363C5.67061 16.056 5.83663 16.6407 6.05492 17.2687C6.28389 17.9448 6.55047 18.6061 6.85326 19.249C7.18832 19.9706 7.58377 20.659 8.03489 21.3062L8.05231 21.3289C7.85452 21.1784 7.28984 20.7778 7.2427 20.7518C6.58476 20.3913 5.11208 20.1022 4.5228 20.7204C4.0975 21.1654 4.19076 21.8746 4.63451 22.2612C5.07826 22.6477 5.81306 22.6444 6.35212 22.5037Z" fill="#222222"/>
<path id="Vector_13" d="M18.1385 13.1088C18.1539 13.1088 18.0268 12.0542 18.0114 11.9893C17.8341 11.2314 17.0696 9.86711 16.2415 9.8054C15.6451 9.75992 15.2013 10.3035 15.2167 10.9087C15.2321 11.514 15.7199 12.0921 16.1718 12.431C16.7037 12.8284 18.1375 13.1088 18.1385 13.1088Z" fill="#222222"/>
</g>
<g id="Group_6" opacity="0.15">
<path id="Vector_14" d="M39.476 29.8221C40.2282 29.848 41.7818 29.1518 41.7839 29.1508C41.7859 29.1497 41.0378 28.2088 40.9835 28.1557C40.3522 27.5397 38.7914 26.7417 37.9541 27.2408C37.3505 27.6003 37.25 28.4232 37.6333 28.997C38.0166 29.5709 38.8344 29.8004 39.476 29.8221Z" fill="#222222"/>
<path id="Vector_15" d="M54.6843 45.7647L54.7437 45.873H55.4232C55.3402 45.7333 55.2541 45.5926 55.166 45.4475C54.9149 45.0371 54.6392 44.603 54.3522 44.1612C54.7036 43.8084 55.0352 43.4342 55.3453 43.0406C55.9991 43.3708 57.4011 43.4899 57.5825 43.504C57.5825 43.9858 57.5712 44.4535 57.5579 44.8953C57.5487 45.1995 57.5374 45.4908 57.5251 45.7723L58.1185 45.5233C58.1185 45.323 58.1257 45.1194 58.1277 44.9072C58.1277 44.4189 58.1277 43.897 58.1205 43.36C58.303 43.3264 59.789 43.0438 60.3752 42.6216C60.904 42.2383 61.4769 41.594 61.5086 40.8784C61.5404 40.1627 61.0351 39.5401 60.3424 39.5791C59.3831 39.6343 58.4731 41.1945 58.2558 42.0694C58.2425 42.1213 58.1625 42.6995 58.1175 43.0644C58.1175 42.8478 58.1103 42.6313 58.1031 42.4072C58.0918 41.9611 58.0683 41.5161 58.0437 41.0375C58.0239 40.8073 58.0044 40.5745 57.9853 40.3391C57.9709 40.1053 57.9268 39.8606 57.8981 39.618C57.8203 39.0594 57.7168 38.4963 57.5999 37.9322C57.9689 37.9203 59.2817 37.8586 59.8617 37.563C60.4418 37.2674 61.0977 36.725 61.2319 36.0223C61.3662 35.3196 60.9552 34.6234 60.2665 34.5519C59.3093 34.4534 58.1861 35.8512 57.8449 36.6817C57.8233 36.7336 57.6399 37.3605 57.5487 37.7059C57.4759 37.3681 57.4052 37.0292 57.3212 36.6893C57.0783 35.7072 56.8036 34.7208 56.5341 33.7356C56.4511 33.4346 56.3722 33.1325 56.2922 32.8315C56.4234 32.8315 57.9842 32.7914 58.634 32.4601C59.212 32.1667 59.8709 31.6221 60.0042 30.9194C60.1374 30.2167 59.7285 29.5205 59.0388 29.449C58.0816 29.3505 56.9594 30.7483 56.6181 31.5788C56.5925 31.6416 56.3322 32.5435 56.2769 32.7763C56.1006 32.1115 55.9305 31.4477 55.788 30.7862C55.5911 29.8946 55.4494 28.9904 55.3637 28.0794C55.4242 28.0794 57.0547 28.048 57.7208 27.7091C58.2989 27.4146 58.9568 26.87 59.091 26.1673C59.2253 25.4646 58.8154 24.7684 58.1257 24.698C57.1685 24.5984 56.0463 25.9973 55.704 26.8277C55.6773 26.8927 55.3965 27.8628 55.3596 28.0425C55.3596 27.9895 55.3453 27.9343 55.3412 27.8823C55.2787 26.9656 55.2937 26.0449 55.3863 25.1311C55.4314 24.6254 55.5011 24.1447 55.579 23.6791C55.8864 23.7062 57.274 23.8134 57.9053 23.5784C58.51 23.3532 59.2212 22.8887 59.4262 22.2055C59.6311 21.5223 59.2981 20.7839 58.6196 20.6323C57.6788 20.4234 56.4183 21.6815 55.992 22.473C55.9694 22.5163 55.7788 22.9786 55.6456 23.3186C55.6835 23.1085 55.7194 22.892 55.7593 22.6917C55.909 21.9338 56.0903 21.2614 56.2543 20.6616C56.3507 20.3216 56.4439 20.0119 56.5351 19.7304C56.8426 19.5929 58.0949 19.0201 58.5438 18.5145C58.9927 18.0089 59.4118 17.2607 59.296 16.5548C59.1802 15.8488 58.5612 15.3551 57.894 15.5511C56.9717 15.8239 56.3968 17.5541 56.363 18.4604C56.363 18.5383 56.446 19.7694 56.4654 19.7596L56.4849 19.7521C56.3927 20.0238 56.2974 20.3172 56.198 20.6399C56.0207 21.2365 55.8259 21.9132 55.6599 22.6646C55.4732 23.472 55.3309 24.2901 55.2336 25.1148C55.1216 26.0381 55.0873 26.97 55.1311 27.8996C55.1311 27.9105 55.1311 27.9224 55.1311 27.9332C55.0286 27.6549 54.7283 26.8862 54.6986 26.8299C54.2815 26.0373 53.0333 24.7651 52.0904 24.9633C51.411 25.1062 51.0728 25.8554 51.2706 26.5267C51.4684 27.198 52.1755 27.6852 52.7771 27.917C53.4565 28.1801 55.0204 28.0523 55.1444 28.0415C55.2117 28.9877 55.3383 29.9281 55.5236 30.8566C55.6261 31.3979 55.7501 31.9393 55.8792 32.4807C55.785 32.2425 55.6999 32.0303 55.6855 32.0021C55.2674 31.2095 54.0202 29.9373 53.0763 30.1355C52.3969 30.2784 52.0587 31.0276 52.2565 31.6989C52.4543 32.3702 53.1614 32.8575 53.764 33.0892C54.3666 33.3209 55.7112 33.2451 56.0637 33.2191C56.1149 33.4259 56.1662 33.6338 56.2154 33.8406C56.4654 34.8324 56.7196 35.8209 56.9399 36.7997C57.0178 37.144 57.0824 37.4861 57.1449 37.8283C57.0619 37.6182 56.9901 37.4407 56.9758 37.4147C56.5587 36.6221 55.3115 35.3499 54.3676 35.5481C53.6882 35.691 53.35 36.4402 53.5477 37.1115C53.7455 37.7828 54.4527 38.27 55.0553 38.5018C55.6384 38.727 56.8713 38.6652 57.2914 38.636C57.3488 38.989 57.4062 39.342 57.4472 39.6863C57.4698 39.9223 57.5067 40.1475 57.5179 40.3868C57.5292 40.6261 57.5477 40.8556 57.562 41.0862C57.5743 41.5323 57.5907 41.9925 57.5927 42.4288C57.5927 42.7309 57.5927 43.02 57.5927 43.3113C57.519 42.9669 57.3611 42.2967 57.3427 42.2426C57.0534 41.5053 56.5901 40.8586 55.9971 40.3641C55.9681 40.2807 55.9321 40.2002 55.8895 40.1237C55.5482 39.5206 54.795 39.2835 54.2395 39.7198C53.4678 40.3251 53.5221 42.1571 53.7999 43.0157C53.8162 43.0666 54.0509 43.5949 54.2098 43.9262C54.0909 43.7465 53.9782 43.57 53.8552 43.3849C53.6123 43.02 53.3602 42.6627 53.0896 42.2772L52.6797 41.7283C52.5455 41.5421 52.3815 41.3634 52.2308 41.1783C51.8742 40.7571 51.494 40.3478 51.1035 39.9461C51.4059 39.7209 52.4686 38.9045 52.7976 38.322C53.1265 37.7395 53.3909 36.9026 53.1358 36.2378C52.8806 35.573 52.1755 35.2319 51.5627 35.5751C50.7131 36.0504 50.5061 37.8694 50.6557 38.7627C50.6649 38.8179 50.8412 39.4459 50.9437 39.7891C50.7059 39.5488 50.4702 39.3084 50.2263 39.0734C49.5089 38.3956 48.7679 37.733 48.028 37.0693C47.8015 36.8657 47.5781 36.6611 47.3537 36.4554C47.4623 36.3763 48.7444 35.4355 49.1143 34.7815C49.4423 34.199 49.7077 33.3609 49.4515 32.6972C49.1953 32.0335 48.4912 31.6914 47.8794 32.0335C47.0298 32.5099 46.8218 34.3278 46.9714 35.2211C46.9827 35.2882 47.2368 36.1955 47.3127 36.4186C46.8187 35.9671 46.3299 35.5123 45.8656 35.0446C45.2357 34.4145 44.6448 33.7422 44.0968 33.0318C44.148 32.995 45.4905 32.0194 45.8687 31.3492C46.1977 30.7667 46.4621 29.9298 46.2069 29.265C45.9517 28.6002 45.2456 28.2591 44.6338 28.6023C43.7842 29.0776 43.5772 30.8966 43.7268 31.7888C43.7381 31.8592 44.0127 32.8315 44.0742 33.0036C44.0425 32.9625 44.0056 32.9235 43.9717 32.8813C43.4332 32.1509 42.9575 31.3711 42.5503 30.5512C42.3238 30.103 42.1312 29.6623 41.9528 29.2281C42.2203 29.0733 43.4368 28.3522 43.8406 27.7892C44.2269 27.2478 44.5774 26.4466 44.3929 25.7569C44.2085 25.0672 43.5423 24.6449 42.8987 24.9145C42.0041 25.2892 41.6095 27.0724 41.669 27.9776C41.669 28.0274 41.7561 28.5189 41.8217 28.8849C41.7438 28.6879 41.6597 28.4854 41.589 28.2948C41.3215 27.5813 41.1176 26.91 40.9423 26.3134C40.845 25.9734 40.763 25.6638 40.6902 25.3736C40.8778 25.0769 41.6208 23.8719 41.7304 23.1876C41.838 22.5195 41.7991 21.6371 41.3349 21.1152C40.8706 20.5933 40.0948 20.5435 39.6408 21.0957C39.0105 21.8634 39.4359 23.6391 39.8827 24.4143C39.9216 24.4814 40.6359 25.457 40.6462 25.4418L40.6574 25.4245C40.723 25.7049 40.7958 26.0059 40.8829 26.3318C41.0459 26.9327 41.2365 27.6116 41.4906 28.3338C41.7555 29.1162 42.0634 29.8816 42.413 30.626C42.8012 31.4613 43.2591 32.2584 43.7811 33.008L43.8016 33.0339C43.5731 32.8596 42.9182 32.3962 42.8649 32.3659C42.1025 31.948 40.3971 31.6145 39.7146 32.3291C39.2227 32.8445 39.3313 33.6663 39.8437 34.1134C40.3561 34.5606 41.2037 34.5519 41.8278 34.3949C42.5308 34.2174 43.7688 33.2039 43.8672 33.1184C44.4161 33.8677 45.0118 34.5774 45.6504 35.2427C46.0204 35.6325 46.4047 36.0126 46.7941 36.3893C46.5892 36.2453 46.4108 36.1187 46.3842 36.1035C45.6217 35.6856 43.9174 35.3521 43.2339 36.0667C42.742 36.581 42.8506 37.4039 43.364 37.8499C43.8775 38.296 44.7229 38.2895 45.3471 38.1315C45.9712 37.9734 47.0514 37.1278 47.3322 36.8993C47.4838 37.0422 47.6324 37.1862 47.7841 37.3324C48.5107 38.0145 49.2383 38.6912 49.9362 39.3788C50.1812 39.6202 50.4138 39.8682 50.6475 40.1161C50.4671 39.9883 50.3154 39.8822 50.2908 39.8682C49.5284 39.4513 47.8231 39.1167 47.1405 39.8313C46.6476 40.3467 46.7572 41.1685 47.2696 41.6157C47.7821 42.0629 48.6296 42.0542 49.2537 41.8972C49.8573 41.7445 50.8535 40.9747 51.1876 40.7062C51.4202 40.9671 51.6528 41.2281 51.867 41.4923C52.0095 41.6752 52.1581 41.842 52.2913 42.0336L52.693 42.5912C52.9369 42.9561 53.1901 43.3307 53.4196 43.6935C53.5805 43.9436 53.7271 44.185 53.8808 44.4286C53.64 44.185 53.1583 43.7173 53.1142 43.6837C52.4204 43.1488 50.7828 42.5458 50.0049 43.1423C49.4443 43.5754 49.4341 44.4037 49.8778 44.9267C50.3216 45.4496 51.1589 45.5763 51.7973 45.5222C52.5014 45.4616 53.8203 44.6917 53.9843 44.5943C54.2272 44.9938 54.465 45.3847 54.6843 45.7647Z" fill="#222222"/>
<path id="Vector_16" d="M55.4724 23.5141C55.4898 23.5141 55.3422 22.2927 55.3248 22.2148C55.1198 21.3334 54.2344 19.7581 53.2751 19.6866C52.5834 19.6346 52.0699 20.2626 52.0904 20.9642C52.1109 21.6658 52.6736 22.3339 53.1962 22.7269C53.8111 23.1892 55.4713 23.5141 55.4724 23.5141Z" fill="#222222"/>
</g>
</g>
<g id="Stairs">
<path id="Vector_17" d="M16.902 33.2031H5.02832V35.6577H16.902V33.2031Z" fill="white" stroke="#222222" stroke-width="0.1875" stroke-linecap="round" stroke-linejoin="round"/>
<path id="Vector_18" d="M20.1896 30.625H8.31592V33.2041H20.1896V30.625Z" fill="white" stroke="#222222" stroke-width="0.1875" stroke-linecap="round" stroke-linejoin="round"/>
<path id="Vector_19" d="M23.4782 28.0469H11.6045V30.6259H23.4782V28.0469Z" fill="white" stroke="#222222" stroke-width="0.1875" stroke-linecap="round" stroke-linejoin="round"/>
<path id="Vector_20" d="M26.7663 25.4668H14.8926V28.0459H26.7663V25.4668Z" fill="white" stroke="#222222" stroke-width="0.1875" stroke-linecap="round" stroke-linejoin="round"/>
<path id="Vector_21" d="M30.1765 45.8709V25.4668H26.7669V28.0459H23.4782V30.626H20.1905V33.2051H16.9019V45.8709H30.1765Z" fill="#222222" stroke="#222222" stroke-width="0.1875" stroke-linecap="round" stroke-linejoin="round"/>
<path id="Vector_22" d="M30.1764 43.416H18.3027V45.8706H30.1764V43.416Z" fill="white" stroke="#222222" stroke-width="0.1875" stroke-linecap="round" stroke-linejoin="round"/>
<path id="Vector_23" d="M15.015 43.416H26.8887V40.8369H15.015V43.416Z" fill="white" stroke="#222222" stroke-width="0.1875" stroke-linecap="round" stroke-linejoin="round"/>
<path id="Vector_24" d="M11.7264 40.8379H23.6001V38.2577H11.7264V40.8379Z" fill="white" stroke="#222222" stroke-width="0.1875" stroke-linecap="round" stroke-linejoin="round"/>
<path id="Vector_25" d="M8.43785 38.2559H20.3115V35.6768H8.43785V38.2559Z" fill="white" stroke="#222222" stroke-width="0.1875" stroke-linecap="round" stroke-linejoin="round"/>
<path id="Vector_26" d="M5.02832 45.8717V35.6777H8.43793V38.2568H11.7256V40.837H15.0143V43.416H18.3029V45.8717H5.02832Z" fill="#222222" stroke="#222222" stroke-width="0.1875" stroke-linecap="round" stroke-linejoin="round"/>
</g>
<g id="character-2">
<path id="Vector_27" d="M65.821 30.3693L65.0483 33.0426L63.3348 31.6513C63.3089 31.4777 63.2747 31.3057 63.2323 31.1359C63.1985 31.0514 62.9945 30.8002 62.9484 30.7028C62.9023 30.6053 62.8357 30.6909 62.8357 30.7634C62.8357 30.836 62.9945 31.0752 62.9945 31.0752L62.9146 31.1586L62.2792 30.8392C62.2718 30.8356 62.2638 30.8336 62.2557 30.8332C62.2475 30.8329 62.2394 30.8343 62.2318 30.8373C62.2241 30.8404 62.2171 30.8449 62.2112 30.8508C62.2053 30.8567 62.2005 30.8638 62.1972 30.8717C62.1912 30.8849 62.1897 30.8999 62.1931 30.9142C62.1964 30.9284 62.2044 30.941 62.2156 30.9496L62.5631 31.2312L62.518 31.3264L61.9389 31.0752C61.9316 31.0721 61.9238 31.0706 61.9159 31.0708C61.908 31.071 61.9003 31.0729 61.8931 31.0763C61.8859 31.0797 61.8794 31.0847 61.8741 31.0908C61.8688 31.097 61.8647 31.1042 61.8621 31.1121C61.8581 31.1253 61.8585 31.1395 61.8632 31.1525C61.8678 31.1654 61.8765 31.1764 61.8877 31.1835L62.4155 31.5083L62.0711 31.5798C62.0631 31.5815 62.0555 31.585 62.0489 31.59C62.0422 31.595 62.0366 31.6015 62.0325 31.6089C62.0283 31.6164 62.0257 31.6247 62.0247 31.6333C62.0238 31.6419 62.0246 31.6506 62.0271 31.6588C62.0311 31.671 62.0385 31.6816 62.0484 31.6892C62.0583 31.6967 62.0702 31.7009 62.0824 31.7011H62.438L62.1306 31.8202C62.1306 31.8202 62.1706 31.9144 62.2331 31.9111L62.5969 31.8927L63.1308 31.9284C63.1308 31.9284 64.8659 33.8503 64.9232 33.9088C64.9806 33.9672 65.3209 34.0982 65.3885 34.0268C65.4562 33.9553 66.2176 32.983 66.2176 32.983L66.1038 30.4657C66.1038 30.4657 65.9911 30.2275 65.821 30.3693Z" fill="white" stroke="#222222" stroke-width="0.1875" stroke-linecap="round" stroke-linejoin="round"/>
<path id="Vector_28" d="M66.2314 27.2882C66.2314 27.2882 65.9004 27.312 65.7446 26.7469C65.5888 26.1817 65.9885 26.0214 66.2099 25.9749C66.4312 25.9283 66.4753 25.414 66.8514 25.3436C67.2275 25.2733 67.6252 25.6013 67.7143 25.885C67.8035 26.1687 68.3784 25.7442 68.7094 26.1189C69.0405 26.4935 69.0169 27.2168 69.0169 27.4745C69.0169 27.7321 69.7691 27.7787 69.7691 28.3861C69.7691 28.9935 69.68 29.2978 69.724 29.3909C69.7681 29.484 70.1001 31.3983 70.1001 31.3983H65.9711C65.9711 31.3983 65.8389 29.9994 65.9936 29.6486C66.1484 29.2978 66.2816 29.274 66.3472 28.947C66.4128 28.62 66.3472 28.1057 66.3031 27.8718C66.2698 27.6787 66.2459 27.4839 66.2314 27.2882Z" fill="#222222" stroke="#222222" stroke-width="0.1875" stroke-linecap="round" stroke-linejoin="round"/>
<path id="Vector_29" d="M67.0286 29.7434L65.7896 29.7673L66.0324 32.9689L68.3783 33.1562L69.4841 29.8366L68.1569 29.7207L67.0286 29.7434Z" fill="#222222" stroke="#222222" stroke-width="0.1875" stroke-linecap="round" stroke-linejoin="round"/>
<path id="Vector_30" d="M66.6297 26.5383C66.6297 26.5383 66.2977 27.0298 66.2311 27.2864C66.1439 27.5831 66.125 27.8975 66.1757 28.2035C66.2424 28.5543 66.4309 29.1336 66.5631 29.178C66.6953 29.2224 67.0499 29.178 67.0499 29.178L67.0284 29.7388H66.8511L66.8726 30.5801L67.714 30.6267L68.1567 29.715L67.9354 29.6684L67.7806 28.2901C67.7806 28.2901 68.001 28.0324 68.0235 27.8451C68.036 27.7522 68.0436 27.6585 68.0461 27.5647C68.0461 27.5647 67.7806 27.7758 67.5593 27.5647C67.3379 27.3536 67.2713 27.1208 67.2047 26.8869C67.1381 26.653 67.0059 26.4668 66.8972 26.4668C66.805 26.4753 66.7147 26.4994 66.6297 26.5383Z" fill="white" stroke="#222222" stroke-width="0.1875" stroke-linecap="round" stroke-linejoin="round"/>
<path id="Vector_31" d="M67.0503 29.1818L67.4264 29.041L67.0728 29.4622L67.0503 29.1818Z" fill="#222222" stroke="#222222" stroke-width="0.1875" stroke-linecap="round" stroke-linejoin="round"/>
<path id="Vector_32" d="M66.0326 32.9688L65.7897 33.7873C65.7897 33.7873 64.9043 34.7921 64.727 36.662C64.5497 38.5318 64.8377 40.379 64.9268 41.1271C65.016 41.8753 65.8687 45.182 65.8687 45.182H66.4446C66.4446 45.182 66.2314 42.1092 66.2314 41.8049V40.0985L67.8578 44.8236L68.3897 44.8474C68.3897 44.8474 68.1766 42.6159 68.0444 41.7075C67.9529 41.1105 67.828 40.5197 67.6703 39.9383C67.6703 39.9383 68.8407 37.4848 68.8407 35.7979C68.8407 34.111 68.442 33.7407 68.442 33.7407L68.3764 33.1561L66.0326 32.9688Z" fill="#BABABA" stroke="#222222" stroke-width="0.1875" stroke-linecap="round" stroke-linejoin="round"/>
<path id="Vector_33" d="M66.7427 35.5349C66.8195 35.1701 66.8728 34.9297 66.8728 34.9297" stroke="#222222" stroke-width="0.1875" stroke-linecap="round" stroke-linejoin="round"/>
<path id="Vector_34" d="M66.231 40.0964C66.231 40.0964 66.1429 39.6286 66.2095 38.6239C66.2484 38.0305 66.4718 36.8525 66.6491 35.9863" stroke="#222222" stroke-width="0.1875" stroke-linecap="round" stroke-linejoin="round"/>
<path id="Vector_35" d="M65.8683 45.1797C65.8683 45.1797 64.8291 45.694 64.8291 45.8109C64.8291 45.9279 66.4883 45.8109 66.4883 45.8109C66.5267 45.6987 66.5417 45.579 66.5324 45.4601C66.5189 45.3619 66.489 45.2669 66.4442 45.1797H65.8683Z" fill="white" stroke="#222222" stroke-width="0.1875" stroke-linecap="round" stroke-linejoin="round"/>
<path id="Vector_36" d="M67.8578 44.8223C67.8578 44.8223 67.372 45.4773 67.2162 45.6408C67.0605 45.8043 67.1056 45.9212 67.2388 45.9212C67.372 45.9212 68.1242 45.8747 68.2564 45.7816C68.3315 45.7304 68.3986 45.6672 68.4553 45.5943L68.3897 44.8461L67.8578 44.8223Z" fill="white" stroke="#222222" stroke-width="0.1875" stroke-linecap="round" stroke-linejoin="round"/>
<path id="Vector_37" d="M69.3528 30.2559C69.3528 30.2559 69.5526 33.3644 69.3753 33.6925C69.198 34.0205 68.6897 33.8321 68.6456 33.6925C68.6016 33.5528 68.6897 32.3358 68.6897 32.3358L69.3528 30.2559Z" fill="white" stroke="#222222" stroke-width="0.1875" stroke-linecap="round" stroke-linejoin="round"/>
<path id="Vector_38" d="M63.9645 22.8219L54.5859 24.2656L56.9518 41.4201L66.3304 39.9764L63.9645 22.8219Z" fill="#2978FF" stroke="#222222" stroke-width="0.1875" stroke-linecap="round" stroke-linejoin="round"/>
<path id="Vector_39" d="M63.3904 25.4185C63.2418 25.4415 63.0904 25.4333 62.9448 25.3944C62.7992 25.3555 62.6623 25.2867 62.5419 25.1919C62.4215 25.0971 62.3199 24.9781 62.2431 24.8418C62.1662 24.7055 62.1156 24.5545 62.094 24.3975C62.088 24.3479 62.0846 24.298 62.0838 24.248L56.6983 25.0763C56.7117 25.1243 56.7219 25.1731 56.729 25.2225C56.7724 25.5396 56.6949 25.862 56.5135 26.1188C56.3321 26.3756 56.0617 26.5458 55.7616 26.5922C55.738 26.5922 55.7155 26.5976 55.6919 26.5997L57.3808 38.8563C57.4044 38.8509 57.4269 38.8455 57.4505 38.8422C57.5993 38.8192 57.751 38.8275 57.8967 38.8666C58.0425 38.9057 58.1795 38.9748 58.3 39.07C58.4204 39.1651 58.5219 39.2845 58.5986 39.4212C58.6753 39.5578 58.7257 39.7092 58.7469 39.8665C58.7537 39.916 58.7575 39.9659 58.7582 40.0159L64.1426 39.1876C64.1295 39.1393 64.1196 39.0901 64.1129 39.0403C64.0912 38.8834 64.0989 38.7235 64.1357 38.5697C64.1725 38.416 64.2377 38.2714 64.3275 38.1443C64.4172 38.0172 64.5298 37.91 64.6589 37.8289C64.7879 37.7478 64.9308 37.6944 65.0793 37.6718C65.1262 37.6646 65.1734 37.6606 65.2208 37.6599L63.5288 25.3871C63.4833 25.4003 63.4371 25.4108 63.3904 25.4185ZM60.7259 34.0803C60.359 34.1368 59.9846 34.0771 59.6498 33.9088C59.3151 33.7405 59.0352 33.4711 58.8454 33.1346C58.6556 32.7982 58.5645 32.4099 58.5836 32.0187C58.6026 31.6276 58.7311 31.2512 58.9526 30.9372C59.1742 30.6232 59.4789 30.3856 59.8283 30.2546C60.1776 30.1235 60.5559 30.1049 60.9153 30.2009C61.2746 30.297 61.599 30.5035 61.8473 30.7943C62.0956 31.0851 62.2567 31.4472 62.3102 31.8348C62.3464 32.0924 62.334 32.3551 62.2739 32.6078C62.2138 32.8604 62.1071 33.098 61.9599 33.307C61.8127 33.516 61.628 33.6923 61.4162 33.8258C61.2045 33.9592 60.9699 34.0472 60.7259 34.0847V34.0803Z" fill="white" stroke="#222222" stroke-width="0.1875" stroke-linecap="round" stroke-linejoin="round"/>
<path id="Vector_40" d="M62.4062 23.1876L53.2129 25.791L57.4791 42.6066L66.6724 40.0032L62.4062 23.1876Z" fill="#2978FF" stroke="#222222" stroke-width="0.188295" stroke-linecap="round" stroke-linejoin="round"/>
<path id="Vector_41" d="M61.8242 25.8316C61.5313 25.9143 61.2194 25.8708 60.9569 25.7106C60.6944 25.5504 60.5028 25.2867 60.4243 24.9773C60.4127 24.9288 60.4035 24.8796 60.3966 24.8301L55.1403 26.3156C55.1582 26.3619 55.1736 26.4092 55.1864 26.4574C55.2253 26.6107 55.2351 26.7706 55.2155 26.9279C55.1958 27.0852 55.147 27.2369 55.0718 27.3743C54.9966 27.5116 54.8965 27.632 54.7773 27.7285C54.658 27.8249 54.5219 27.8956 54.3768 27.9364C54.3542 27.9429 54.3307 27.9473 54.3081 27.9527L57.3375 39.918L57.4051 39.8952C57.5501 39.8541 57.7014 39.8436 57.8503 39.8643C57.9991 39.885 58.1426 39.9365 58.2727 40.0159C58.4027 40.0952 58.5166 40.2008 58.608 40.3267C58.6993 40.4526 58.7663 40.5963 58.8051 40.7495C58.8172 40.7979 58.8265 40.8471 58.8327 40.8968L64.0891 39.4112C64.0711 39.365 64.0557 39.3176 64.043 39.2694C63.9647 38.9599 64.0061 38.6301 64.1579 38.3528C64.3097 38.0754 64.5596 37.8731 64.8526 37.7904C64.8983 37.7769 64.9449 37.7671 64.9919 37.7612L61.9585 25.7829C61.9147 25.802 61.8699 25.8183 61.8242 25.8316ZM60.1291 34.7663C59.7709 34.8664 59.3926 34.852 59.042 34.725C58.6915 34.5979 58.3845 34.364 58.1597 34.0527C57.935 33.7414 57.8027 33.3667 57.7794 32.976C57.7562 32.5852 57.8431 32.196 58.0291 31.8574C58.2152 31.5188 58.4921 31.2461 58.8248 31.0737C59.1575 30.9013 59.5312 30.837 59.8985 30.8889C60.2658 30.9408 60.6103 31.1065 60.8885 31.3651C61.1667 31.6238 61.366 31.9638 61.4614 32.3421C61.525 32.5937 61.5409 32.8561 61.5083 33.1142C61.4757 33.3723 61.3953 33.6211 61.2715 33.8463C61.1477 34.0715 60.9831 34.2687 60.7871 34.4266C60.5911 34.5845 60.3675 34.6999 60.1291 34.7663Z" fill="white" stroke="#222222" stroke-width="0.1875" stroke-linecap="round" stroke-linejoin="round"/>
<g id="Vector_42">
<path d="M68.8407 33.1792L65.5438 33.1089C65.5438 33.1089 64.8797 32.875 64.769 32.875C64.6136 32.9015 64.4606 32.9424 64.312 32.9973C64.2977 33.0021 64.2857 33.0123 64.2781 33.0259C64.2705 33.0395 64.268 33.0555 64.271 33.071C64.2742 33.0872 64.2833 33.1015 64.2963 33.1108C64.3093 33.1201 64.3252 33.1237 64.3407 33.1208L64.6594 33.0623L64.7475 33.1316L64.109 33.5647C64.0961 33.5736 64.0867 33.5874 64.0829 33.6032C64.0791 33.6191 64.0811 33.6359 64.0885 33.6502C64.096 33.6648 64.1084 33.6758 64.1232 33.6811C64.1381 33.6863 64.1543 33.6853 64.1685 33.6784L64.6481 33.4402L64.6645 33.5679L64.1521 33.8505C64.1358 33.8596 64.1233 33.8746 64.1169 33.8928C64.1105 33.911 64.1106 33.931 64.1172 33.9491C64.124 33.9664 64.1364 33.9807 64.1521 33.9894C64.1678 33.9981 64.186 34.0007 64.2033 33.9967L64.3909 33.9512C64.4125 33.9792 64.4413 33.9999 64.4739 34.0109C64.5065 34.0218 64.5414 34.0226 64.5743 34.013L64.9238 33.9047L64.7024 34.0541C64.6938 34.0595 64.6865 34.067 64.6812 34.076C64.6758 34.085 64.6726 34.0952 64.6717 34.1057C64.6708 34.1163 64.6722 34.127 64.676 34.1368C64.6797 34.1466 64.6856 34.1554 64.6932 34.1624C64.7043 34.1715 64.718 34.1765 64.7321 34.1765C64.7462 34.1765 64.7599 34.1715 64.7711 34.1624L65.2138 33.843L65.593 33.5874L68.9339 34.2089C68.9339 34.2089 69.2158 34.2349 69.265 34.1754C69.3141 34.1158 69.4095 33.5528 69.4177 33.4077" fill="white"/>
<path d="M68.8407 33.1792L65.5438 33.1089C65.5438 33.1089 64.8797 32.875 64.769 32.875C64.6136 32.9015 64.4606 32.9424 64.312 32.9973C64.2977 33.0021 64.2857 33.0123 64.2781 33.0259C64.2705 33.0395 64.268 33.0555 64.271 33.071C64.2742 33.0872 64.2833 33.1015 64.2963 33.1108C64.3093 33.1201 64.3252 33.1237 64.3407 33.1208L64.6594 33.0623L64.7475 33.1316L64.109 33.5647C64.0961 33.5736 64.0867 33.5874 64.0829 33.6032C64.0791 33.6191 64.0811 33.6359 64.0885 33.6502C64.096 33.6648 64.1084 33.6758 64.1232 33.6811C64.1381 33.6863 64.1543 33.6853 64.1685 33.6784L64.6481 33.4402L64.6645 33.5679L64.1521 33.8505C64.1358 33.8596 64.1233 33.8746 64.1169 33.8928C64.1105 33.911 64.1106 33.931 64.1172 33.9491C64.124 33.9664 64.1364 33.9807 64.1521 33.9894C64.1678 33.9981 64.186 34.0007 64.2033 33.9967L64.3909 33.9512C64.4125 33.9792 64.4413 33.9999 64.4739 34.0109C64.5065 34.0218 64.5414 34.0226 64.5743 34.013L64.9238 33.9047L64.7024 34.0541C64.6938 34.0595 64.6865 34.067 64.6812 34.076C64.6758 34.085 64.6726 34.0952 64.6717 34.1057C64.6708 34.1163 64.6722 34.127 64.676 34.1368C64.6797 34.1466 64.6856 34.1554 64.6932 34.1624C64.7043 34.1715 64.718 34.1765 64.7321 34.1765C64.7462 34.1765 64.7599 34.1715 64.7711 34.1624L65.2138 33.843L65.593 33.5874L68.9339 34.2089C68.9339 34.2089 69.2158 34.2349 69.265 34.1754C69.3141 34.1158 69.4095 33.5528 69.4177 33.4077" stroke="#222222" stroke-width="0.1875" stroke-linecap="round" stroke-linejoin="round"/>
</g>
<path id="Vector_43" d="M64.3916 33.954L64.8435 33.7754" stroke="#222222" stroke-width="0.1875" stroke-linecap="round" stroke-linejoin="round"/>
<path id="Vector_44" d="M66.5269 27.5939C66.5269 27.6738 66.488 27.7397 66.439 27.7397C66.3899 27.7397 66.3511 27.6738 66.3511 27.5939C66.3511 27.514 66.3909 27.4492 66.439 27.4492C66.487 27.4492 66.5269 27.514 66.5269 27.5939Z" fill="#222222"/>
<path id="Vector_45" d="M67.022 27.7052C67.022 27.7851 66.9821 27.8499 66.9341 27.8499C66.8861 27.8499 66.8462 27.7851 66.8462 27.7052C66.8462 27.6253 66.8861 27.5605 66.9341 27.5605C66.9821 27.5605 67.022 27.6253 67.022 27.7052Z" fill="#222222"/>
<path id="Vector_46" d="M66.3296 27.2636C66.3296 27.2636 66.4175 27.147 66.5922 27.2744" stroke="#222222" stroke-width="0.1875" stroke-linecap="round" stroke-linejoin="round"/>
<path id="Vector_47" d="M66.835 27.3308C66.8948 27.3059 66.9615 27.3064 67.021 27.3324C67.0805 27.3584 67.1281 27.4078 67.1538 27.4701" stroke="#222222" stroke-width="0.1875" stroke-linecap="round" stroke-linejoin="round"/>
<path id="Vector_48" d="M66.6158 27.6016C66.6276 27.6712 66.6238 27.7428 66.6045 27.8105C66.5718 27.8917 66.418 28.0422 66.4293 28.078C66.4406 28.1137 66.5164 28.1353 66.5164 28.1353" stroke="#222222" stroke-width="0.1875" stroke-linecap="round" stroke-linejoin="round"/>
<path id="Vector_49" d="M66.4175 28.4139C66.4175 28.4139 66.7249 28.5644 66.9668 28.3555" stroke="#222222" stroke-width="0.1875" stroke-linecap="round" stroke-linejoin="round"/>
</g>
<g id="character-1">
<path id="Vector_50" d="M32.2156 19.5599C34.1661 19.5599 35.7472 17.8894 35.7472 15.8288C35.7472 13.7681 34.1661 12.0977 32.2156 12.0977C30.2652 12.0977 28.6841 13.7681 28.6841 15.8288C28.6841 17.8894 30.2652 19.5599 32.2156 19.5599Z" fill="white" stroke="#222222" stroke-width="0.1875" stroke-linecap="round" stroke-linejoin="round"/>
<path id="Vector_51" d="M32.5716 19.5599C34.522 19.5599 36.1032 17.8894 36.1032 15.8288C36.1032 13.7681 34.522 12.0977 32.5716 12.0977C30.6212 12.0977 29.04 13.7681 29.04 15.8288C29.04 17.8894 30.6212 19.5599 32.5716 19.5599Z" fill="white" stroke="#222222" stroke-width="0.1875" stroke-linecap="round" stroke-linejoin="round"/>
<path id="Vector_52" d="M34.6912 18.0687C35.8615 16.8323 35.8615 14.8278 34.6912 13.5914C33.521 12.3551 31.6236 12.3551 30.4534 13.5914C29.2831 14.8278 29.2831 16.8323 30.4534 18.0687C31.6236 19.3051 33.521 19.3051 34.6912 18.0687Z" fill="white" stroke="#222222" stroke-width="0.1875" stroke-linecap="round" stroke-linejoin="round"/>
<path id="Vector_53" d="M32.6059 18.0564V17.6396C32.3148 17.628 32.0972 17.5295 31.9531 17.344C31.8089 17.1585 31.731 16.882 31.7194 16.5146L32.3179 16.4063C32.3205 16.5321 32.3352 16.6573 32.362 16.7799C32.3779 16.8637 32.4155 16.9413 32.4706 17.004C32.4953 17.0291 32.5246 17.0487 32.5566 17.0615C32.5887 17.0743 32.6229 17.0802 32.6571 17.0787C32.6921 17.0827 32.7274 17.0764 32.7592 17.0605C32.791 17.0447 32.8181 17.0199 32.8375 16.9888C32.8703 16.9255 32.8869 16.8542 32.8856 16.782C32.8894 16.6466 32.8536 16.5131 32.7832 16.3998C32.7054 16.2836 32.6134 16.1787 32.5095 16.088L32.1498 15.7632C32.0708 15.6864 31.9968 15.6039 31.9285 15.5163C31.8627 15.4304 31.8104 15.3339 31.7737 15.2305C31.7334 15.108 31.714 14.979 31.7163 14.8494C31.7095 14.7293 31.7262 14.6091 31.7654 14.4963C31.8045 14.3834 31.8653 14.2802 31.9438 14.1932C32.1096 14.0295 32.3258 13.9345 32.5526 13.9258V13.5273H32.7575V13.9258C32.8891 13.9285 33.018 13.9657 33.1326 14.0341C33.2256 14.0928 33.3026 14.176 33.356 14.2755C33.4073 14.3753 33.4442 14.4826 33.4657 14.5938C33.4876 14.7038 33.502 14.8152 33.5087 14.9273L32.902 15.0215C32.9002 14.9232 32.8916 14.8251 32.8764 14.7281C32.867 14.6561 32.8409 14.5877 32.8006 14.5289C32.7795 14.504 32.753 14.4849 32.7233 14.4732C32.6937 14.4615 32.6618 14.4576 32.6305 14.4617C32.5951 14.4613 32.5601 14.4701 32.5287 14.4872C32.4972 14.5044 32.4702 14.5295 32.4501 14.5603C32.4084 14.6237 32.3868 14.6996 32.3886 14.7768C32.3837 14.8952 32.4165 15.0119 32.4819 15.1081C32.5468 15.1941 32.6177 15.2748 32.694 15.3496L33.0465 15.6744C33.1399 15.764 33.2263 15.8614 33.3048 15.9657C33.3842 16.071 33.4484 16.1881 33.4954 16.3132C33.5456 16.4514 33.5703 16.5984 33.5682 16.7463C33.5701 16.8962 33.5389 17.0445 33.477 17.1794C33.4177 17.3079 33.3267 17.4172 33.2136 17.4956C33.0924 17.579 32.9531 17.6286 32.8088 17.6396V18.0607L32.6059 18.0564Z" fill="white" stroke="#222222" stroke-width="0.1875" stroke-linecap="round" stroke-linejoin="round"/>
<path id="Vector_54" d="M23.7012 15.3686L23.8129 20.8385L23.7678 24.7277L24.3704 24.6335C24.3704 24.6335 25.0181 20.9793 25.0181 20.7671C25.0181 20.5548 25.3747 17.8437 25.3747 17.8437L26.0439 21.3561L26.3914 24.7266L26.9939 24.6324C26.9939 24.6324 27.0708 20.9782 27.0708 20.3188C27.0708 19.6594 27.0401 15.414 27.0401 15.414L25.1513 14.8965L23.7012 15.3686Z" fill="#222222" stroke="#222222" stroke-width="0.1875" stroke-linecap="round" stroke-linejoin="round"/>
<path id="Vector_55" d="M24.3702 24.6348C24.3702 24.6348 25.2628 25.2476 25.1296 25.3927C24.9963 25.5378 24.2585 25.3927 24.0576 25.3689C23.9648 25.365 23.8738 25.3411 23.7901 25.2985L23.7676 24.7322L24.3702 24.6348Z" fill="white" stroke="#222222" stroke-width="0.1875" stroke-linecap="round" stroke-linejoin="round"/>
<path id="Vector_56" d="M26.9937 24.6348C26.9937 24.6348 27.8863 25.2476 27.7521 25.3927C27.6178 25.5378 26.882 25.3927 26.6811 25.3689C26.5884 25.365 26.4973 25.3411 26.4137 25.2985L26.3911 24.7322L26.9937 24.6348Z" fill="white" stroke="#222222" stroke-width="0.1875" stroke-linecap="round" stroke-linejoin="round"/>
<path id="Vector_57" d="M31.5942 11.985L32.3987 11.7891C32.3987 11.7891 33.1714 12.2222 33.236 12.2839C33.3006 12.3456 33.1714 12.3521 33.031 12.3521C32.8109 12.321 32.5928 12.2751 32.3782 12.2146C32.3782 12.2146 32.7154 12.3228 32.6611 12.3759C32.6306 12.4009 32.5956 12.4189 32.5582 12.4288C32.5208 12.4386 32.4818 12.4402 32.4438 12.4333C32.3895 12.4214 32.1825 12.3867 32.1825 12.3867C32.1825 12.3867 31.8238 12.3759 31.7152 12.3521L31.6065 12.3293L31.5942 11.985Z" fill="white" stroke="#222222" stroke-width="0.1875" stroke-linecap="round" stroke-linejoin="round"/>
<path id="Vector_58" d="M26.3901 8.61355C26.3901 8.61355 24.5598 9.69628 24.3241 10.007C24.0883 10.3178 24.0094 11.878 23.8516 12.9802C23.7484 13.8007 23.6892 14.6267 23.6743 15.4543C23.6743 15.4543 24.9933 15.6416 25.724 15.621C26.1698 15.6065 26.6125 15.5368 27.0429 15.4131C27.0429 15.4131 27.2991 14.0196 27.3576 13.8117C27.416 13.6039 27.8894 11.1049 27.8894 11.1049L29.3457 12.3317H31.5942V11.9798C31.5942 11.9798 29.8151 11.5467 29.7956 11.4785C29.7762 11.4102 28.2799 9.1495 27.8269 8.8799C27.3739 8.6103 26.7058 8.36344 26.3901 8.61355Z" fill="#2978FF" stroke="#222222" stroke-width="0.1875" stroke-linecap="round" stroke-linejoin="round"/>
<path id="Vector_59" d="M26.5673 8.01172L26.2332 8.86383C26.2332 8.86383 26.0754 8.90606 26.1154 9.23846C26.1553 9.57085 26.5479 10.5063 26.6852 10.4858C26.8225 10.4652 27.256 9.2233 27.256 9.2233L26.5673 8.01172Z" fill="white" stroke="#222222" stroke-width="0.1875" stroke-linecap="round" stroke-linejoin="round"/>
<path id="Vector_60" d="M26.7559 8.95117L26.8952 10.087L27.1576 9.52827L26.7559 8.95117Z" fill="#222222" stroke="#222222" stroke-width="0.1875" stroke-linecap="round" stroke-linejoin="round"/>
<path id="Vector_61" d="M28.4379 7.51307C28.5028 7.57071 28.5829 7.60572 28.6673 7.61328C28.7517 7.62084 28.8363 7.60058 28.9094 7.55529C29.2055 7.40912 29.3429 7.0973 29.0867 6.84827C28.8304 6.59924 28.6931 6.86884 28.6142 6.53644C28.5353 6.20404 28.2207 5.97559 27.9501 6.05787C27.6796 6.14016 27.7738 6.24519 27.5771 6.3069C27.3803 6.36862 27.1241 6.18239 26.8679 6.45307C26.6117 6.72375 26.5727 7.36798 26.5143 7.65924C26.4559 7.95049 26.7111 8.03278 26.9243 8.01221C27.1374 7.99163 27.3178 7.51307 27.4951 7.36257C27.6724 7.21207 28.4379 7.51307 28.4379 7.51307Z" fill="#222222" stroke="#222222" stroke-width="0.1875" stroke-linecap="round" stroke-linejoin="round"/>
<path id="Vector_62" d="M26.5286 8.09614C26.5286 8.09614 26.5481 8.55305 26.6311 8.69922C26.7141 8.84539 27.041 9.53076 27.162 9.53076C27.288 9.54002 27.4147 9.52573 27.536 9.48853C27.6149 9.44739 27.9296 9.01105 28.1263 8.63642C28.3231 8.2618 28.442 7.51363 28.442 7.51363C28.442 7.51363 27.4971 6.88997 27.4377 7.01449C27.3782 7.139 27.3987 7.32631 27.3003 7.34689C27.2019 7.36746 26.9857 7.38911 26.9857 7.38911C26.9857 7.38911 27.0441 7.68037 26.9652 7.74208C26.8863 7.8038 26.6895 7.68037 26.6895 7.68037C26.6895 7.68037 26.4497 7.72151 26.5286 8.09614Z" fill="white" stroke="#222222" stroke-width="0.1875" stroke-linecap="round" stroke-linejoin="round"/>
<path id="Vector_63" d="M27.6225 8.16913C27.6052 8.24795 27.5571 8.30409 27.5203 8.29438C27.4836 8.28466 27.459 8.21124 27.4764 8.13242C27.4938 8.0536 27.5418 7.99637 27.5837 8.00717C27.6256 8.01797 27.642 8.09031 27.6225 8.16913Z" fill="#222222"/>
<path id="Vector_64" d="M28.1371 8.31952C28.1187 8.39942 28.0717 8.45448 28.0298 8.44477C27.9879 8.43505 27.9685 8.36163 27.9858 8.28281C28.0032 8.20399 28.0513 8.14676 28.088 8.15756C28.1248 8.16836 28.1545 8.2407 28.1371 8.31952Z" fill="#222222"/>
<path id="Vector_65" d="M27.4077 7.87096C27.4077 7.87096 27.4854 7.80535 27.7143 7.87096" stroke="#222222" stroke-width="0.1875" stroke-linecap="round" stroke-linejoin="round"/>
<path id="Vector_66" d="M28.0605 8.02148C28.1015 8.02642 28.141 8.04065 28.1763 8.0632C28.2115 8.08575 28.2418 8.11608 28.2649 8.15213" stroke="#222222" stroke-width="0.1875" stroke-linecap="round" stroke-linejoin="round"/>
<path id="Vector_67" d="M27.8899 8.31641L27.812 8.75924L27.564 8.72676" stroke="#222222" stroke-width="0.1875" stroke-linecap="round" stroke-linejoin="round"/>
<path id="Vector_68" d="M27.4853 8.98788C27.4853 8.98788 27.2523 8.98788 27.1787 8.64453" stroke="#222222" stroke-width="0.1875" stroke-linecap="round" stroke-linejoin="round"/>
<g id="Vector_69">
<path d="M26.7836 7.86724C26.7836 7.86724 26.7447 7.38867 26.5674 7.38867C26.3901 7.38867 26.2333 7.82176 26.3317 8.01233C26.4301 8.20289 26.6852 8.26135 26.6852 8.26135" fill="white"/>
<path d="M26.7836 7.86724C26.7836 7.86724 26.7447 7.38867 26.5674 7.38867C26.3901 7.38867 26.2333 7.82176 26.3317 8.01233C26.4301 8.20289 26.6852 8.26135 26.6852 8.26135" stroke="#222222" stroke-width="0.1875" stroke-linecap="round" stroke-linejoin="round"/>
</g>
<g id="Vector_70">
<path d="M25.2138 10.3822L25.5551 13.3705L28.4246 14.4067L28.4697 14.7575L24.6327 14.2053L24.0178 10.8423C23.943 10.4341 24.1418 9.99131 24.4175 9.74336C24.6932 9.49542 25.1257 9.48242 25.1257 9.48242" fill="#2978FF"/>
<path d="M25.2138 10.3822L25.5551 13.3705L28.4246 14.4067L28.4697 14.7575L24.6327 14.2053L24.0178 10.8423C23.943 10.4341 24.1418 9.99131 24.4175 9.74336C24.6932 9.49542 25.1257 9.48242 25.1257 9.48242" stroke="#222222" stroke-width="0.1875" stroke-linecap="round" stroke-linejoin="round"/>
</g>
<path id="Vector_71" d="M28.4204 14.4055C28.4204 14.4055 28.8775 14.2701 28.9328 14.2582C28.9882 14.2463 29.2987 14.5008 29.3602 14.5094C29.4217 14.5181 29.5262 14.5386 29.5211 14.6242C29.516 14.7097 29.4893 14.779 29.3397 14.7249C29.2545 14.6956 29.1716 14.6594 29.0917 14.6166C29.2323 14.7686 29.3815 14.9114 29.5385 15.0443C29.5951 15.0818 29.6467 15.1269 29.6922 15.1785C29.6992 15.1864 29.7043 15.1958 29.7071 15.2062C29.7099 15.2165 29.7104 15.2274 29.7085 15.2379C29.7066 15.2485 29.7024 15.2584 29.6962 15.2669C29.69 15.2754 29.6819 15.2822 29.6728 15.2868C29.5502 15.3485 29.4177 15.3852 29.2823 15.3951C29.063 15.3951 28.4624 14.7574 28.4624 14.7574L28.4204 14.4055Z" fill="white" stroke="#222222" stroke-width="0.1875" stroke-linecap="round" stroke-linejoin="round"/>
</g>
<g id="piggy-bank">
<path id="Vector_72" d="M46.3145 23.2718C46.3145 23.2718 49.2475 21.5242 49.6749 21.6931C50.1022 21.862 49.3008 25.2997 49.1942 25.5249C49.0876 25.7501 46.3145 23.2718 46.3145 23.2718Z" fill="#2978FF" stroke="#222222" stroke-width="0.1875" stroke-linecap="round" stroke-linejoin="round"/>
<path id="Vector_73" d="M49.5144 22.1445C49.5144 22.1445 49.3873 22.3535 49.2254 22.6545C48.9426 23.1807 48.5552 23.9884 48.5552 24.4551C48.5552 25.187 48.9815 25.1307 49.0881 24.5634L49.4611 22.9284" stroke="#222222" stroke-width="0.1875" stroke-linecap="round" stroke-linejoin="round"/>
<path id="Vector_74" d="M24.8611 32.4397C25.6654 32.4397 26.3174 31.5429 26.3174 30.4367C26.3174 29.3304 25.6654 28.4336 24.8611 28.4336C24.0568 28.4336 23.4048 29.3304 23.4048 30.4367C23.4048 31.5429 24.0568 32.4397 24.8611 32.4397Z" fill="#2978FF" stroke="#222222" stroke-width="0.1875" stroke-linecap="round" stroke-linejoin="round"/>
<path id="Vector_75" d="M38.0608 44.811C45.7244 44.811 51.9369 39.2543 51.9369 32.3997C51.9369 25.545 45.7244 19.9883 38.0608 19.9883C30.3972 19.9883 24.1846 25.545 24.1846 32.3997C24.1846 39.2543 30.3972 44.811 38.0608 44.811Z" fill="#2978FF" stroke="#222222" stroke-width="0.1875" stroke-linecap="round" stroke-linejoin="round"/>
<g id="Vector_76">
<path d="M47.0736 40.9567C44.7165 42.9403 41.5498 44.1562 38.0612 44.1562C31.8354 44.1562 26.6201 40.2833 25.2632 35.084" fill="#2978FF"/>
<path d="M47.0736 40.9567C44.7165 42.9403 41.5498 44.1562 38.0612 44.1562C31.8354 44.1562 26.6201 40.2833 25.2632 35.084" stroke="#222222" stroke-width="0.375" stroke-linecap="round" stroke-linejoin="round"/>
</g>
<g id="Vector_77">
<path d="M24.9266 32.7893C24.9215 32.6605 24.9194 32.5306 24.9194 32.3995C24.9198 30.9822 25.2012 29.5806 25.7454 28.2852" fill="#2978FF"/>
<path d="M24.9266 32.7893C24.9215 32.6605 24.9194 32.5306 24.9194 32.3995C24.9198 30.9822 25.2012 29.5806 25.7454 28.2852" stroke="#222222" stroke-width="0.375" stroke-linecap="round" stroke-linejoin="round"/>
</g>
<path id="Vector_78" d="M33.894 21.3539C36.6246 20.5383 39.5158 20.5383 42.2464 21.3539" stroke="#222222" stroke-width="0.9375" stroke-linecap="round" stroke-linejoin="round"/>
<g id="Vector_79">
<path d="M51.1685 28.5703C51.1685 28.5703 52.9291 27.9499 53.1956 28.2888C53.462 28.6277 53.462 32.571 53.2489 33.304C53.0357 34.037 51.5948 33.867 50.5843 33.0788C50.2946 32.8639 50.0601 32.5761 49.902 32.2416C49.7438 31.907 49.667 31.5361 49.6784 31.1623" fill="#2978FF"/>
<path d="M51.1685 28.5703C51.1685 28.5703 52.9291 27.9499 53.1956 28.2888C53.462 28.6277 53.462 32.571 53.2489 33.304C53.0357 34.037 51.5948 33.867 50.5843 33.0788C50.2946 32.8639 50.0601 32.5761 49.902 32.2416C49.7438 31.907 49.667 31.5361 49.6784 31.1623" stroke="#222222" stroke-width="0.1875" stroke-linecap="round" stroke-linejoin="round"/>
</g>
<path id="Vector_80" d="M50.102 30.9941L49.0352 31.163" stroke="#222222" stroke-width="0.1875" stroke-linecap="round" stroke-linejoin="round"/>
<path id="Vector_81" d="M49.835 32.2324C49.835 32.2324 49.5686 34.2052 49.8883 34.2615C50.2081 34.3178 50.742 33.3032 50.742 33.3032C50.742 33.3032 49.9949 32.4013 49.835 32.2324Z" fill="#222222" stroke="#222222" stroke-width="0.1875" stroke-linecap="round" stroke-linejoin="round"/>
<path id="Vector_82" d="M48.8645 27.6116C48.967 28.0176 48.9045 28.3857 48.7333 28.4323C48.5622 28.4789 48.3439 28.1865 48.2445 27.7827C48.1451 27.3788 48.2045 27.0085 48.3757 26.9619C48.5468 26.9154 48.7661 27.2045 48.8645 27.6116Z" fill="#222222"/>
<g id="Vector_83">
<path d="M43.2598 22.1506C43.2598 22.1506 46.6161 18.6047 47.2709 19.2965C47.9258 19.9884 47.6809 23.0157 47.6809 23.4488V24.6593" fill="#2978FF"/>
<path d="M43.2598 22.1506C43.2598 22.1506 46.6161 18.6047 47.2709 19.2965C47.9258 19.9884 47.6809 23.0157 47.6809 23.4488V24.6593" stroke="#222222" stroke-width="0.1875" stroke-linecap="round" stroke-linejoin="round"/>
</g>
<path id="Vector_84" d="M47.3818 20.0605C47.3818 20.0605 47.4351 19.1586 47.061 19.7227C46.687 20.2868 45.6211 24.1738 45.9409 24.6253C46.2606 25.0768 47.1707 24.8505 47.3818 24.0049C47.5929 23.1593 47.4351 20.7361 47.4351 20.7361" stroke="#222222" stroke-width="0.1875" stroke-linecap="round" stroke-linejoin="round"/>
<g id="Vector_85">
<path d="M29.0093 40.627L30.8458 45.8706H32.8729L33.7788 43.1649" fill="#2978FF"/>
<path d="M29.0093 40.627L30.8458 45.8706H32.8729L33.7788 43.1649" stroke="#222222" stroke-width="0.1875" stroke-linecap="round" stroke-linejoin="round"/>
</g>
<g id="Vector_86">
<path d="M45.9408 41.3066L44.1812 45.8714H42.154L41.2471 43.1657" fill="#2978FF"/>
<path d="M45.9408 41.3066L44.1812 45.8714H42.154L41.2471 43.1657" stroke="#222222" stroke-width="0.1875" stroke-linecap="round" stroke-linejoin="round"/>
</g>
<path id="Vector_87" d="M37.3834 38.547V37.4524C36.6189 37.4206 36.0474 37.1619 35.6689 36.6761C35.2904 36.1903 35.0854 35.4649 35.054 34.4998L36.625 34.2172C36.6318 34.5479 36.6709 34.877 36.7419 35.1992C36.7832 35.4192 36.8815 35.6227 37.0257 35.7872C37.0909 35.8526 37.1678 35.9036 37.252 35.9371C37.3361 35.9706 37.4258 35.9859 37.5156 35.982C37.7452 35.982 37.903 35.9041 37.9891 35.746C38.0766 35.5808 38.1208 35.3939 38.1172 35.2046C38.1288 34.8489 38.0373 34.498 37.8548 34.1988C37.6508 33.8941 37.4096 33.6192 37.1375 33.3813L36.1905 32.5216C35.9839 32.3191 35.7905 32.102 35.6115 31.872C35.4358 31.6452 35.2973 31.3891 35.2016 31.1141C35.0951 30.7928 35.0441 30.4539 35.0509 30.1136C35.0509 29.3774 35.2497 28.8032 35.6473 28.391C36.045 27.9788 36.5776 27.7453 37.2451 27.6905V26.6543H37.7882V27.7013C38.1342 27.7087 38.4728 27.8077 38.7731 27.9893C39.0165 28.1446 39.218 28.3635 39.3583 28.6249C39.4939 28.8865 39.5913 29.1683 39.6473 29.4607C39.7039 29.7491 39.7402 30.0415 39.7559 30.3356L38.1633 30.5825C38.1588 30.3241 38.1365 30.0665 38.0967 29.8115C38.0715 29.6217 38.001 29.4417 37.8917 29.2886C37.8366 29.2234 37.7673 29.1733 37.6899 29.1426C37.6124 29.1119 37.5291 29.1014 37.447 29.1121C37.354 29.1107 37.2621 29.1336 37.1795 29.1787C37.0969 29.2239 37.0261 29.2899 36.9735 29.3709C36.8664 29.533 36.8098 29.7264 36.8116 29.9242C36.7981 30.234 36.8849 30.5395 37.0575 30.7903C37.227 31.0173 37.413 31.2298 37.614 31.4259L38.5363 32.2726C38.7845 32.5093 39.0141 32.7667 39.223 33.0424C39.4318 33.3188 39.6007 33.6264 39.7241 33.9552C39.8555 34.3204 39.9192 34.709 39.9117 35.0996C39.9165 35.4924 39.8344 35.881 39.6719 36.2343C39.5166 36.5714 39.2783 36.8583 38.9821 37.0648C38.6632 37.2827 38.2973 37.4119 37.9184 37.4405V38.547H37.3834Z" fill="#222222"/>
</g>
<g id="Floor">
<path id="Vector_88" d="M1 45.8691H74.924" stroke="#222222" stroke-width="0.1875" stroke-linecap="round" stroke-linejoin="round"/>
</g>
</g>
</svg>
