<svg width="137" height="111" viewBox="0 0 137 111" fill="none" xmlns="http://www.w3.org/2000/svg">
<g id="Stairs">
<path id="Vector" d="M64.8121 42.0879H1.4859V55.1789H64.8121V42.0879Z" fill="white" stroke="#222222" stroke-linecap="round" stroke-linejoin="round"/>
<path id="Vector_2" d="M82.3463 28.334H19.02V42.089H82.3463V28.334Z" fill="white" stroke="#222222" stroke-linecap="round" stroke-linejoin="round"/>
<path id="Vector_3" d="M99.8857 14.5703H36.5595V28.3254H99.8857V14.5703Z" fill="white" stroke="#222222" stroke-linecap="round" stroke-linejoin="round"/>
<path id="Vector_4" d="M117.42 0.816406H54.0938V14.5715H117.42V0.816406Z" fill="white" stroke="#222222" stroke-linecap="round" stroke-linejoin="round"/>
<path id="Vector_5" d="M135.61 109.638V0.816406H117.425V14.5715H99.8859V28.3323H82.3517V42.0873H64.8121V109.638H135.61Z" fill="#222222" stroke="#222222" stroke-linecap="round" stroke-linejoin="round"/>
<path id="Vector_6" d="M135.61 96.541H72.2838V109.632H135.61V96.541Z" fill="white" stroke="#222222" stroke-linecap="round" stroke-linejoin="round"/>
<path id="Vector_7" d="M54.7497 96.541L118.076 96.541V82.786L54.7497 82.786V96.541Z" fill="white" stroke="#222222" stroke-linecap="round" stroke-linejoin="round"/>
<path id="Vector_8" d="M37.21 82.7852L100.536 82.7852V69.0243L37.21 69.0243V82.7852Z" fill="white" stroke="#222222" stroke-linecap="round" stroke-linejoin="round"/>
<path id="Vector_9" d="M19.6704 69.0254L82.9966 69.0254V55.2703L19.6704 55.2703V69.0254Z" fill="white" stroke="#222222" stroke-linecap="round" stroke-linejoin="round"/>
<path id="Vector_10" d="M1.4859 109.639V55.2715H19.6705V69.0265H37.2046V82.7873H54.7442V96.5424H72.2838V109.639H1.4859Z" fill="#222222" stroke="#222222" stroke-linecap="round" stroke-linejoin="round"/>
</g>
</svg>
